<?xml version="1.0" encoding="utf-8"?>
<!-- Generator: Adobe Illustrator 26.4.1, SVG Export Plug-In . SVG Version: 6.00 Build 0)  -->
<svg version="1.1" id="Capa_1" xmlns="http://www.w3.org/2000/svg" xmlns:xlink="http://www.w3.org/1999/xlink" x="0px" y="0px"
	 viewBox="0 0 337.2 117.2" style="enable-background:new 0 0 337.2 117.2;" xml:space="preserve">
<style type="text/css">
	.st0{fill:#66CD83;}
</style>
<g>
	<path class="st0" d="M16.2,108.6c-1.7,0.1-2.9-0.2-3.7-1.1c-0.8-0.8-1.4-1.9-1.6-3.2c-0.3-1.3-0.4-2.7-0.4-4.1c0-1.5,0-2.7,0-3.9
		v-12l-0.1-23.9v-12c0-2.2,0.1-4.1,0.2-5.8c0.2-1.7,0.5-3.2,1-4.4c0.5-1.2,1.2-2.2,2.1-2.9c0.9-0.7,2.2-1.1,3.8-1.2
		c1.9-0.1,3.5,0.5,4.9,1.9c1.4,1.4,2.1,3.3,2.1,5.7c0,0.4,0,1.2-0.1,2.4c0,1.2-0.1,2.6-0.1,4.3c0,1.7,0,3.4,0,5.1c0,1.8,0,3.4,0,5
		c0,1.5,0.1,2.8,0.2,3.7c0.1,1,0.3,1.4,0.4,1.4c0.3,0,0.9-0.8,1.9-2.4c0.9-1.6,2-3.5,3.3-5.8c1.2-2.3,2.6-4.8,4.1-7.5
		c1.5-2.7,2.9-5.2,4.4-7.6c1.5-2.3,2.8-4.3,4.2-5.9C44,32.9,45.1,32,46,32c0.7-0.1,1.5,0,2.4,0.2c0.9,0.2,1.7,0.5,2.4,0.9
		c0.7,0.4,1.3,1,1.8,1.7c0.5,0.7,0.7,1.6,0.7,2.6c0,0.6-0.4,1.9-1.3,3.7c-0.9,1.8-2,3.8-3.3,6.1c-1.3,2.3-2.7,4.7-4.2,7.2
		c-1.5,2.5-2.9,4.9-4.2,7c-1.3,2.1-2.4,4-3.3,5.4c-0.9,1.5-1.3,2.3-1.3,2.6c0,0.3,0.5,1.2,1.4,2.7c0.9,1.5,2.1,3.2,3.4,5.2
		c1.4,2,2.9,4.2,4.5,6.5c1.7,2.3,3.2,4.6,4.5,6.8c1.4,2.2,2.5,4.1,3.4,5.8c0.9,1.7,1.4,3,1.4,3.8c0,1-0.3,2-1,2.7
		c-0.7,0.8-1.5,1.4-2.5,2c-1,0.6-1.9,1-2.9,1.3c-1,0.3-1.8,0.5-2.4,0.5c-1.1,0.1-2.3-0.6-3.5-2c-1.2-1.4-2.3-2.9-3.3-4.5
		c-0.3-0.5-0.8-1.5-1.5-2.7c-0.7-1.3-1.5-2.7-2.4-4.4C34,91.4,33,89.7,32,87.9c-1-1.7-2-3.3-2.9-4.8c-0.9-1.5-1.7-2.7-2.4-3.6
		c-0.7-0.9-1.2-1.4-1.5-1.3c-0.6,0-1,0.5-1,1.5c0,0.9,0,1.7,0,2.4v3.4v2.8l0.1,4.7v2.8c0,4.1-0.6,7.2-1.9,9.4
		C21.1,107.2,19,108.4,16.2,108.6z"/>
	<path class="st0" d="M79.6,105c-4.2,0.3-7.7-0.6-10.5-2.5c-2.8-2-5.1-4.7-6.8-8.1c-1.7-3.4-2.9-7.3-3.6-11.6
		c-0.7-4.3-1.1-8.7-1.1-13.2c0-4.4,0.3-9,1-13.7c0.7-4.7,1.9-9,3.6-13c1.7-3.9,4-7.2,6.8-9.8c2.8-2.6,6.4-4.1,10.6-4.4
		c4.3-0.3,7.8,0.5,10.6,2.5c2.8,1.9,5,4.7,6.7,8.1c1.7,3.5,2.8,7.5,3.5,12c0.7,4.5,1,9.2,1,14.1c0,4.8-0.3,9.6-1,14.2
		c-0.7,4.6-1.9,8.8-3.5,12.4c-1.7,3.6-3.9,6.6-6.7,8.9C87.4,103.4,83.9,104.7,79.6,105z M79.6,97.4c2-0.1,3.6-1.4,4.9-3.7
		c1.2-2.3,2.2-5.1,2.9-8.3c0.7-3.2,1.1-6.6,1.4-10.1c0.2-3.5,0.4-6.5,0.4-9c0-1.2-0.1-2.8-0.2-4.7c-0.1-1.9-0.3-4-0.6-6.2
		c-0.3-2.2-0.6-4.5-1.1-6.8c-0.4-2.3-1-4.4-1.8-6.2c-0.7-1.8-1.6-3.3-2.5-4.4c-1-1.1-2.1-1.6-3.4-1.5c-1.3,0.1-2.4,0.8-3.4,2.1
		c-1,1.3-1.8,2.9-2.5,4.9c-0.7,2-1.3,4.2-1.7,6.5c-0.4,2.4-0.8,4.7-1,7c-0.2,2.3-0.4,4.4-0.5,6.3c-0.1,1.9-0.1,3.5-0.1,4.6
		c0,2.5,0.1,5.5,0.4,9c0.2,3.5,0.7,6.8,1.4,9.9c0.7,3.1,1.6,5.7,2.8,7.8C76.1,96.5,77.6,97.5,79.6,97.4z"/>
	<path class="st0" d="M114.3,101.7c-1.2,0.1-2.2-0.1-2.9-0.5c-0.7-0.4-1.3-0.9-1.6-1.6c-0.4-0.7-0.6-1.5-0.7-2.4
		c-0.1-0.9-0.2-1.9-0.2-3V36.5c0-0.9,0-1.9,0.1-2.9c0-1,0.2-2,0.5-2.9c0.3-0.9,0.8-1.7,1.6-2.3c0.7-0.7,1.7-1,3-1.1
		c1.6-0.1,2.8,0.4,3.6,1.5c0.8,1.1,1.4,2.4,1.8,3.8c0.4,1.4,0.6,2.7,0.7,3.9c0.1,1.2,0.2,1.7,0.4,1.7c0.2,0,0.4-0.7,0.7-1.9
		c0.3-1.3,0.9-2.7,1.8-4.2c0.8-1.5,2-2.9,3.6-4.3c1.5-1.4,3.6-2.1,6.3-2.3c2.3-0.2,4.1,0.3,5.6,1.4c1.5,1.1,2.6,2.4,3.5,3.8
		c0.9,1.4,1.6,2.7,2.1,3.9c0.5,1.2,0.8,1.8,1.1,1.7s0.6-0.6,1-1.9c0.4-1.2,1.1-2.6,2-4.2c0.9-1.6,2.1-3,3.7-4.3
		c1.6-1.3,3.6-2.1,6.2-2.2c3.3-0.2,6,0.4,8.1,1.9c2.1,1.5,3.7,3.6,4.9,6.4c1.2,2.8,2,6.1,2.4,10c0.4,3.9,0.7,8.1,0.7,12.6v39.8
		c0,1.1-0.8,2-2.3,2.6c-1.5,0.6-3.1,1-4.7,1.1c-1.6,0.1-2.9,0-3.8-0.4c-0.9-0.4-1.3-1.2-1.3-2.4V56.4c0-1,0-2.6,0-4.9
		c0-2.3-0.2-4.6-0.5-7c-0.4-2.4-1-4.5-1.8-6.2c-0.8-1.8-2.1-2.6-3.8-2.5c-1.5,0.1-2.6,0.8-3.6,1.9c-0.9,1.2-1.7,2.8-2.2,4.8
		c-0.6,2-1,4.4-1.3,7.2c-0.3,2.8-0.5,5.9-0.7,9.3c-0.2,4-0.4,8-0.5,12c-0.1,4-0.1,7.8-0.1,11.2c0,3.4,0.1,6.3,0.1,8.7
		c0,2.4,0.1,3.9,0.1,4.7c0,1.1-0.7,2.1-2,2.9c-1.3,0.8-3,1.2-4.9,1.4s-3.3,0-4.1-0.6c-0.8-0.5-1.2-1.7-1.2-3.7V58.3
		c0-0.9,0-2.5,0-4.8c0-2.3-0.2-4.7-0.5-7.1c-0.3-2.4-0.9-4.5-1.7-6.3c-0.8-1.8-2-2.6-3.6-2.5c-1.5,0.1-2.7,0.8-3.7,2.1
		c-1,1.3-1.8,3-2.5,5c-0.6,2-1.1,4.2-1.5,6.6c-0.4,2.4-0.6,4.8-0.8,7.1c-0.2,2.3-0.3,4.4-0.3,6.3c0,1.9-0.1,3.4-0.1,4.4v26.9
		c0,1.5-0.6,2.9-1.9,4C117.6,101,116.1,101.6,114.3,101.7z"/>
	<path class="st0" d="M181.9,32.8c0-3.5,0.5-6.1,1.6-7.9c1-1.8,2.9-2.7,5.7-2.9c1.5-0.1,2.7,0.2,3.6,1c0.8,0.8,1.3,1.5,1.3,2.3
		c0,2.7,0.2,4.1,0.7,4.1c0.2,0,0.6-0.5,1.1-1.4c0.5-0.9,1.2-2,2.2-3.1c1-1.2,2.2-2.2,3.6-3.2c1.5-1,3.3-1.6,5.4-1.7
		c2.7-0.2,5.1,0.3,7.3,1.4c2.2,1.1,4.1,2.7,5.6,4.9c1.6,2.2,2.8,4.9,3.7,8c0.9,3.2,1.3,6.8,1.3,10.8c0,9.4-1.9,16.9-5.7,22.7
		c-3.8,5.8-9,9-15.7,9.6l-5.4,0.5c-1.2,0.1-1.9,0.9-2.1,2.3c-0.2,1.5-0.3,3-0.3,4.5v3.5c0,1.5-0.2,2.7-0.7,3.7c-0.4,1-1,1.8-1.8,2.5
		c-0.7,0.7-1.5,1.2-2.4,1.6c-0.8,0.3-1.7,0.5-2.5,0.6c-1.6,0.1-3.1-0.4-4.5-1.5c-1.4-1.1-2.1-3.2-2.1-6.4V32.8z M201.6,66.5
		c2.7-0.2,5-2.1,6.8-5.7c1.8-3.6,2.7-8.4,2.7-14.2c0-4.8-0.5-8.6-1.6-11.1c-1-2.6-2.7-3.8-4.8-3.7c-1.5,0.1-2.7,0.5-3.9,1.1
		c-1.1,0.6-2.1,1.5-2.8,2.4c-0.7,1-1.3,2.1-1.7,3.3c-0.4,1.2-0.6,2.4-0.6,3.6V63c0,1.1,0.2,2,0.7,2.7c0.4,0.7,1,1,1.6,1L201.6,66.5z
		"/>
	<path class="st0" d="M237,93.1c-2,0.1-3.4-0.4-4.2-1.8c-0.8-1.3-1.2-3.2-1.2-5.6V30.1c0-4.4,0.4-7.4,1.3-9c0.9-1.7,2.4-2.6,4.5-2.7
		c1.9-0.1,3.3,0.5,4.4,1.9c1.1,1.4,1.6,3.5,1.6,6.4c0,0.9,0,1.6,0,2c0,0.4,0.1,0.7,0.4,0.6c0.2,0,0.3-0.1,0.3-0.4
		c0-0.2,0.1-0.5,0.3-0.9c0.2-0.6,0.6-1.5,1-2.6c0.4-1.2,1.1-2.3,1.9-3.5c0.8-1.2,1.9-2.2,3.2-3.2c1.3-0.9,2.8-1.5,4.6-1.6
		c1.6-0.1,2.9,0.3,3.9,1.2c1,0.9,1.5,2.1,1.5,3.6c0,1.6-0.3,3.2-1,4.6c-0.7,1.5-1.8,2.2-3.4,2.4c-1.6,0.1-3.1,1-4.5,2.6
		c-1.4,1.6-2.6,3.6-3.6,5.9c-1,2.4-1.8,4.9-2.4,7.7c-0.6,2.8-0.9,5.4-0.9,7.9V86c0,2.4-0.8,4.2-2.4,5.3
		C240.4,92.4,238.7,93,237,93.1z"/>
	<path class="st0" d="M279.4,91.1c-5.4,0.4-9.6-2.5-12.6-8.7c-3-6.2-4.5-14.9-4.5-26.3c0-2.3,0.1-4.8,0.3-7.6
		c0.2-2.8,0.6-5.7,1.1-8.7c0.5-3,1.3-5.9,2.3-8.8c1-2.9,2.3-5.5,3.9-7.8c1.6-2.3,3.5-4.3,5.7-5.8c2.2-1.5,4.9-2.4,7.9-2.6
		c2.1-0.1,3.8,0.1,5.3,0.7c1.4,0.6,2.6,1.3,3.4,2.1c0.9,0.8,1.6,1.5,2.1,2.2c0.5,0.7,0.8,1,1.1,1c0.2,0,0.4-0.4,0.5-1.1
		c0.1-0.7,0.3-1.5,0.6-2.5c0.3-0.9,0.8-1.8,1.5-2.5c0.7-0.8,1.8-1.2,3.3-1.3c1.5-0.1,2.8,0.2,3.9,0.8c1,0.7,1.6,1.5,1.6,2.7v46.9
		c0,3.3,0.1,6.4,0.4,9.3c0.2,2.9,0.4,5.2,0.4,6.7c0,2.8-0.5,5.2-1.6,7c-1.1,1.8-2.5,2.8-4.2,3c-1.9,0.1-3.5-0.8-4.7-2.9
		c-1.2-2.1-1.8-4.8-1.8-8.2c0-2.1-0.2-3.1-0.6-3.1c-0.3,0-0.8,0.8-1.3,2.4c-0.6,1.6-1.4,3.3-2.5,5.3c-1.1,1.9-2.5,3.7-4.3,5.4
		C284.5,90,282.2,90.9,279.4,91.1z M282.3,79.1c1.1-0.1,2.3-1.3,3.6-3.5c1.3-2.3,2.5-5.1,3.6-8.5c1.1-3.4,2-7.1,2.7-11.1
		c0.7-4,1.1-7.6,1.1-11c0-2.7-0.2-5.2-0.7-7.5c-0.4-2.3-1.1-4.4-1.9-6.2c-0.8-1.8-1.7-3.1-2.7-4.1c-1-1-2.1-1.4-3.2-1.3
		c-1.3,0.1-2.5,0.9-3.7,2.4c-1.2,1.5-2.2,3.5-3.1,6c-0.8,2.5-1.5,5.4-2.1,8.7c-0.5,3.3-0.8,6.8-0.8,10.5c0,3.3,0.2,6.5,0.6,9.6
		c0.4,3.1,0.9,5.9,1.6,8.2c0.7,2.4,1.5,4.3,2.3,5.7C280.6,78.5,281.4,79.1,282.3,79.1z"/>
	<path class="st0" d="M322.5,73.6c-1.3,0.1-2.3-0.3-3-1.1c-0.7-0.8-1.3-2.3-1.6-4.5c-0.4-2.2-0.6-5.1-0.7-8.7
		c-0.1-3.7-0.1-8.3-0.1-13.8c0-7.8,0-13.9,0.1-18.3c0.1-4.4,0.4-7.6,0.8-9.7c0.5-2.1,1.2-3.5,2.2-4c1-0.5,2.4-0.8,4.3-1
		c1-0.1,1.7,0.2,2.3,0.7c0.6,0.5,1,1.7,1.4,3.5c0.4,1.8,0.6,4.6,0.7,8.2c0.1,3.6,0.2,8.5,0.2,14.7c0,11.3-0.4,19.7-1.2,25.3
		C327.1,70.5,325.3,73.4,322.5,73.6z M322.6,88.1c-1.5,0.1-2.8-0.3-3.7-1.3c-0.9-0.9-1.4-2.3-1.4-4c0-1.5,0.4-3,1.2-4.4
		c0.8-1.4,2.1-2.1,3.9-2.3c1.9-0.1,3.3,0.4,4.2,1.6c1,1.2,1.5,2.6,1.5,4.3c0,1.9-0.5,3.3-1.6,4.3C325.6,87.4,324.2,88,322.6,88.1z"
		/>
</g>
</svg>
